<svg width="128" height="128" viewBox="0 0 128 128" fill="none" xmlns="http://www.w3.org/2000/svg">
<rect width="128" height="128" fill="#0D0A1A"/>
<path d="M64 48C55.1634 48 48 55.1634 48 64C48 72.8366 55.1634 80 64 80C72.8366 80 80 72.8366 80 64C80 55.1634 72.8366 48 64 48ZM64 76C57.3726 76 52 70.6274 52 64C52 57.3726 57.3726 52 64 52C70.6274 52 76 57.3726 76 64C76 70.6274 70.6274 76 64 76Z" fill="#7F57FF"/>
<path d="M88 40H84V36H80V40H48V36H44V40H40V88H44V92H48V88H80V92H84V88H88V40ZM84 84H44V44H84V84Z" fill="#7F57FF"/>
</svg>
